M48
; DRILL file {KiCad 5.1.6-c6e7f7d~87~ubuntu20.04.1} date Sun Jan 17 18:02:24 2021
; FORMAT={-:-/ absolute / inch / decimal}
; #@! TF.CreationDate,2021-01-17T18:02:24+02:00
; #@! TF.GenerationSoftware,Kicad,Pcbnew,5.1.6-c6e7f7d~87~ubuntu20.04.1
; #@! TF.FileFunction,Plated,1,2,PTH
FMAT,2
INCH
T1C0.0118
%
G90
G05
T1
X3.9646Y-2.0197
X3.9646Y-2.0472
X3.9646Y-2.0748
X3.9646Y-2.1024
X3.9646Y-2.1299
X3.9646Y-2.1575
X3.9646Y-2.185
X3.9646Y-2.2126
X3.9646Y-2.2402
X3.9646Y-2.2677
X3.9646Y-2.2953
X3.9646Y-2.3228
X3.9646Y-2.3504
X3.9646Y-2.378
X3.9646Y-2.4055
X3.9646Y-2.4331
X3.9646Y-2.4606
X3.9646Y-2.4882
X3.9646Y-2.5157
X3.9646Y-2.5433
X3.9646Y-2.5709
X3.9646Y-2.5984
X3.9646Y-2.626
X3.9646Y-2.6535
X3.9646Y-2.6811
X3.9646Y-2.7087
X3.9646Y-2.7362
X3.9646Y-2.7638
X3.9646Y-2.7913
X3.9646Y-2.8189
X3.9646Y-2.8465
X3.9646Y-2.874
X3.9646Y-2.9016
X3.9646Y-2.9291
X3.9646Y-2.9567
X3.9646Y-2.9843
X3.9646Y-3.0118
X3.9646Y-3.0394
X3.9646Y-3.0669
X3.9646Y-3.0945
X3.9646Y-3.122
X3.9646Y-3.1496
X3.9646Y-3.1772
X3.9646Y-3.2047
X3.9646Y-3.2323
X3.9646Y-3.2598
X3.9646Y-3.2874
X3.9921Y-2.0197
X3.9921Y-2.0472
X3.9921Y-2.0748
X3.9921Y-2.1024
X3.9921Y-2.1299
X3.9921Y-2.1575
X3.9921Y-2.185
X3.9921Y-2.2126
X3.9921Y-2.2402
X3.9921Y-2.2677
X3.9921Y-2.2953
X3.9921Y-2.3228
X3.9921Y-2.3504
X3.9921Y-2.378
X3.9921Y-2.4055
X3.9921Y-2.4331
X3.9921Y-2.4606
X3.9921Y-2.4882
X3.9921Y-2.5157
X3.9921Y-2.5433
X3.9921Y-2.5709
X3.9921Y-2.5984
X3.9921Y-2.626
X3.9921Y-2.6535
X3.9921Y-2.6811
X3.9921Y-2.7087
X3.9921Y-2.7362
X3.9921Y-2.7638
X3.9921Y-2.7913
X3.9921Y-2.8189
X3.9921Y-2.8465
X3.9921Y-2.874
X3.9921Y-2.9016
X3.9921Y-2.9291
X3.9921Y-2.9567
X3.9921Y-2.9843
X3.9921Y-3.0118
X3.9921Y-3.0394
X3.9921Y-3.0669
X3.9921Y-3.0945
X3.9921Y-3.122
X3.9921Y-3.1496
X3.9921Y-3.1772
X3.9921Y-3.2047
X3.9921Y-3.2323
X3.9921Y-3.2598
X3.9921Y-3.2874
X4.0197Y-2.0197
X4.0197Y-2.0472
X4.0197Y-2.0748
X4.0197Y-2.1024
X4.0197Y-2.1299
X4.0197Y-2.1575
X4.0197Y-2.185
X4.0197Y-2.2126
X4.0197Y-2.2402
X4.0197Y-2.2677
X4.0197Y-2.2953
X4.0197Y-2.3228
X4.0197Y-2.3504
X4.0197Y-2.378
X4.0197Y-2.4055
X4.0197Y-2.4331
X4.0197Y-2.4606
X4.0197Y-2.4882
X4.0197Y-2.5157
X4.0197Y-2.5433
X4.0197Y-2.5709
X4.0197Y-2.5984
X4.0197Y-2.626
X4.0197Y-2.6535
X4.0197Y-2.6811
X4.0197Y-2.7087
X4.0197Y-2.7362
X4.0197Y-2.7638
X4.0197Y-2.7913
X4.0197Y-2.8189
X4.0197Y-2.8465
X4.0197Y-2.874
X4.0197Y-2.9016
X4.0197Y-2.9291
X4.0197Y-2.9567
X4.0197Y-2.9843
X4.0197Y-3.0118
X4.0197Y-3.0394
X4.0197Y-3.0669
X4.0197Y-3.0945
X4.0197Y-3.122
X4.0197Y-3.1496
X4.0197Y-3.1772
X4.0197Y-3.2047
X4.0197Y-3.2323
X4.0197Y-3.2598
X4.0197Y-3.2874
X4.0472Y-2.0197
X4.0472Y-2.0472
X4.0472Y-2.0748
X4.0472Y-2.1024
X4.0472Y-2.1299
X4.0472Y-2.1575
X4.0472Y-2.185
X4.0472Y-2.2126
X4.0472Y-2.2402
X4.0472Y-2.2677
X4.0472Y-2.2953
X4.0472Y-2.3228
X4.0472Y-2.3504
X4.0472Y-2.378
X4.0472Y-2.4055
X4.0472Y-2.4331
X4.0472Y-2.4606
X4.0472Y-2.4882
X4.0472Y-2.5157
X4.0472Y-2.5433
X4.0472Y-2.5709
X4.0472Y-2.5984
X4.0472Y-2.626
X4.0472Y-2.6535
X4.0472Y-2.6811
X4.0472Y-2.7087
X4.0472Y-2.7362
X4.0472Y-2.7638
X4.0472Y-2.7913
X4.0472Y-2.8189
X4.0472Y-2.8465
X4.0472Y-2.874
X4.0472Y-2.9016
X4.0472Y-2.9291
X4.0472Y-2.9567
X4.0472Y-2.9843
X4.0472Y-3.0118
X4.0472Y-3.0394
X4.0472Y-3.0669
X4.0472Y-3.0945
X4.0472Y-3.122
X4.0472Y-3.1496
X4.0472Y-3.1772
X4.0472Y-3.2047
X4.0472Y-3.2323
X4.0472Y-3.2598
X4.0472Y-3.2874
X4.0748Y-2.0197
X4.0748Y-2.0472
X4.0748Y-2.0748
X4.0748Y-2.1024
X4.0748Y-2.1299
X4.0748Y-2.1575
X4.0748Y-2.185
X4.0748Y-2.2126
X4.0748Y-2.2402
X4.0748Y-2.2677
X4.0748Y-2.2953
X4.0748Y-2.3228
X4.0748Y-2.3504
X4.0748Y-2.378
X4.0748Y-2.4055
X4.0748Y-2.4331
X4.0748Y-2.4606
X4.0748Y-2.4882
X4.0748Y-2.5157
X4.0748Y-2.5433
X4.0748Y-2.5709
X4.0748Y-2.5984
X4.0748Y-2.626
X4.0748Y-2.6535
X4.0748Y-2.6811
X4.0748Y-2.7087
X4.0748Y-2.7362
X4.0748Y-2.7638
X4.0748Y-2.7913
X4.0748Y-2.8189
X4.0748Y-2.8465
X4.0748Y-2.874
X4.0748Y-2.9016
X4.0748Y-2.9291
X4.0748Y-2.9567
X4.0748Y-2.9843
X4.0748Y-3.0118
X4.0748Y-3.0394
X4.0748Y-3.0669
X4.0748Y-3.0945
X4.0748Y-3.122
X4.0748Y-3.1496
X4.0748Y-3.1772
X4.0748Y-3.2047
X4.0748Y-3.2323
X4.0748Y-3.2598
X4.0748Y-3.2874
X4.1024Y-2.0197
X4.1024Y-2.0472
X4.1024Y-2.0748
X4.1024Y-2.1024
X4.1024Y-2.1299
X4.1024Y-2.1575
X4.1024Y-2.185
X4.1024Y-2.2126
X4.1024Y-2.2402
X4.1024Y-2.2677
X4.1024Y-2.2953
X4.1024Y-2.3228
X4.1024Y-2.3504
X4.1024Y-2.378
X4.1024Y-2.4055
X4.1024Y-2.4331
X4.1024Y-2.4606
X4.1024Y-2.4882
X4.1024Y-2.5157
X4.1024Y-2.5433
X4.1024Y-2.5709
X4.1024Y-2.5984
X4.1024Y-2.626
X4.1024Y-2.6535
X4.1024Y-2.6811
X4.1024Y-2.7087
X4.1024Y-2.7362
X4.1024Y-2.7638
X4.1024Y-2.7913
X4.1024Y-2.8189
X4.1024Y-2.8465
X4.1024Y-2.874
X4.1024Y-2.9016
X4.1024Y-2.9291
X4.1024Y-2.9567
X4.1024Y-2.9843
X4.1024Y-3.0118
X4.1024Y-3.0394
X4.1024Y-3.0669
X4.1024Y-3.0945
X4.1024Y-3.122
X4.1024Y-3.1496
X4.1024Y-3.1772
X4.1024Y-3.2047
X4.1024Y-3.2323
X4.1024Y-3.2598
X4.1024Y-3.2874
X4.1299Y-2.0197
X4.1299Y-2.0472
X4.1299Y-2.0748
X4.1299Y-2.1024
X4.1299Y-2.1299
X4.1299Y-2.1575
X4.1299Y-2.185
X4.1299Y-2.2126
X4.1299Y-2.2402
X4.1299Y-2.2677
X4.1299Y-2.2953
X4.1299Y-2.3228
X4.1299Y-2.3504
X4.1299Y-2.378
X4.1299Y-2.4055
X4.1299Y-2.4331
X4.1299Y-2.4606
X4.1299Y-2.4882
X4.1299Y-2.5157
X4.1299Y-2.5433
X4.1299Y-2.5709
X4.1299Y-2.5984
X4.1299Y-2.626
X4.1299Y-2.6535
X4.1299Y-2.6811
X4.1299Y-2.7087
X4.1299Y-2.7362
X4.1299Y-2.7638
X4.1299Y-2.7913
X4.1299Y-2.8189
X4.1299Y-2.8465
X4.1299Y-2.874
X4.1299Y-2.9016
X4.1299Y-2.9291
X4.1299Y-2.9567
X4.1299Y-2.9843
X4.1299Y-3.0118
X4.1299Y-3.0394
X4.1299Y-3.0669
X4.1299Y-3.0945
X4.1299Y-3.122
X4.1299Y-3.1496
X4.1299Y-3.1772
X4.1299Y-3.2047
X4.1299Y-3.2323
X4.1299Y-3.2598
X4.1299Y-3.2874
X4.1575Y-2.0197
X4.1575Y-2.0472
X4.1575Y-2.0748
X4.1575Y-2.1024
X4.1575Y-2.1299
X4.1575Y-2.1575
X4.1575Y-2.185
X4.1575Y-2.2126
X4.1575Y-2.2402
X4.1575Y-2.2677
X4.1575Y-2.2953
X4.1575Y-2.3228
X4.1575Y-2.3504
X4.1575Y-2.378
X4.1575Y-2.4055
X4.1575Y-2.4331
X4.1575Y-2.4606
X4.1575Y-2.4882
X4.1575Y-2.5157
X4.1575Y-2.5433
X4.1575Y-2.5709
X4.1575Y-2.5984
X4.1575Y-2.626
X4.1575Y-2.6535
X4.1575Y-2.6811
X4.1575Y-2.7087
X4.1575Y-2.7362
X4.1575Y-2.7638
X4.1575Y-2.7913
X4.1575Y-2.8189
X4.1575Y-2.8465
X4.1575Y-2.874
X4.1575Y-2.9016
X4.1575Y-2.9291
X4.1575Y-2.9567
X4.1575Y-2.9843
X4.1575Y-3.0118
X4.1575Y-3.0394
X4.1575Y-3.0669
X4.1575Y-3.0945
X4.1575Y-3.122
X4.1575Y-3.1496
X4.1575Y-3.1772
X4.1575Y-3.2047
X4.1575Y-3.2323
X4.1575Y-3.2598
X4.1575Y-3.2874
X4.185Y-2.0197
X4.185Y-2.0472
X4.185Y-2.0748
X4.185Y-2.1024
X4.185Y-2.1299
X4.185Y-2.1575
X4.185Y-2.185
X4.185Y-2.2126
X4.185Y-2.2402
X4.185Y-2.2677
X4.185Y-2.2953
X4.185Y-2.3228
X4.185Y-2.3504
X4.185Y-2.378
X4.185Y-2.4055
X4.185Y-2.4331
X4.185Y-2.4606
X4.185Y-2.4882
X4.185Y-2.5157
X4.185Y-2.5433
X4.185Y-2.5709
X4.185Y-2.5984
X4.185Y-2.626
X4.185Y-2.6535
X4.185Y-2.6811
X4.185Y-2.7087
X4.185Y-2.7362
X4.185Y-2.7638
X4.185Y-2.7913
X4.185Y-2.8189
X4.185Y-2.8465
X4.185Y-2.874
X4.185Y-2.9016
X4.185Y-2.9291
X4.185Y-2.9567
X4.185Y-2.9843
X4.185Y-3.0118
X4.185Y-3.0394
X4.185Y-3.0669
X4.185Y-3.0945
X4.185Y-3.122
X4.185Y-3.1496
X4.185Y-3.1772
X4.185Y-3.2047
X4.185Y-3.2323
X4.185Y-3.2598
X4.185Y-3.2874
X4.2126Y-2.0197
X4.2126Y-2.0472
X4.2126Y-2.0748
X4.2126Y-2.1024
X4.2126Y-2.1299
X4.2126Y-2.1575
X4.2126Y-2.185
X4.2126Y-2.2126
X4.2126Y-2.2402
X4.2126Y-2.2677
X4.2126Y-2.2953
X4.2126Y-2.3228
X4.2126Y-2.3504
X4.2126Y-2.378
X4.2126Y-2.4055
X4.2126Y-2.4331
X4.2126Y-2.4606
X4.2126Y-2.4882
X4.2126Y-2.5157
X4.2126Y-2.5433
X4.2126Y-2.5709
X4.2126Y-2.5984
X4.2126Y-2.626
X4.2126Y-2.6535
X4.2126Y-2.6811
X4.2126Y-2.7087
X4.2126Y-2.7362
X4.2126Y-2.7638
X4.2126Y-2.7913
X4.2126Y-2.8189
X4.2126Y-2.8465
X4.2126Y-2.874
X4.2126Y-2.9016
X4.2126Y-2.9291
X4.2126Y-2.9567
X4.2126Y-2.9843
X4.2126Y-3.0118
X4.2126Y-3.0394
X4.2126Y-3.0669
X4.2126Y-3.0945
X4.2126Y-3.122
X4.2126Y-3.1496
X4.2126Y-3.1772
X4.2126Y-3.2047
X4.2126Y-3.2323
X4.2126Y-3.2598
X4.2126Y-3.2874
X4.2402Y-2.0197
X4.2402Y-2.0472
X4.2402Y-2.0748
X4.2402Y-2.1024
X4.2402Y-2.1299
X4.2402Y-2.1575
X4.2402Y-2.185
X4.2402Y-2.2126
X4.2402Y-2.2402
X4.2402Y-2.2677
X4.2402Y-2.2953
X4.2402Y-2.3228
X4.2402Y-2.3504
X4.2402Y-2.378
X4.2402Y-2.4055
X4.2402Y-2.4331
X4.2402Y-2.4606
X4.2402Y-2.4882
X4.2402Y-2.5157
X4.2402Y-2.5433
X4.2402Y-2.5709
X4.2402Y-2.5984
X4.2402Y-2.626
X4.2402Y-2.6535
X4.2402Y-2.6811
X4.2402Y-2.7087
X4.2402Y-2.7362
X4.2402Y-2.7638
X4.2402Y-2.7913
X4.2402Y-2.8189
X4.2402Y-2.8465
X4.2402Y-2.874
X4.2402Y-2.9016
X4.2402Y-2.9291
X4.2402Y-2.9567
X4.2402Y-2.9843
X4.2402Y-3.0118
X4.2402Y-3.0394
X4.2402Y-3.0669
X4.2402Y-3.0945
X4.2402Y-3.122
X4.2402Y-3.1496
X4.2402Y-3.1772
X4.2402Y-3.2047
X4.2402Y-3.2323
X4.2402Y-3.2598
X4.2402Y-3.2874
X4.2677Y-2.0197
X4.2677Y-2.0472
X4.2677Y-2.0748
X4.2677Y-2.1024
X4.2677Y-2.1299
X4.2677Y-2.1575
X4.2677Y-2.185
X4.2677Y-2.2126
X4.2677Y-2.2402
X4.2677Y-2.2677
X4.2677Y-2.2953
X4.2677Y-2.3228
X4.2677Y-2.3504
X4.2677Y-2.378
X4.2677Y-2.4055
X4.2677Y-2.4331
X4.2677Y-2.4606
X4.2677Y-2.4882
X4.2677Y-2.5157
X4.2677Y-2.5433
X4.2677Y-2.5709
X4.2677Y-2.5984
X4.2677Y-2.626
X4.2677Y-2.6535
X4.2677Y-2.6811
X4.2677Y-2.7087
X4.2677Y-2.7362
X4.2677Y-2.7638
X4.2677Y-2.7913
X4.2677Y-2.8189
X4.2677Y-2.8465
X4.2677Y-2.874
X4.2677Y-2.9016
X4.2677Y-2.9291
X4.2677Y-2.9567
X4.2677Y-2.9843
X4.2677Y-3.0118
X4.2677Y-3.0394
X4.2677Y-3.0669
X4.2677Y-3.0945
X4.2677Y-3.122
X4.2677Y-3.1496
X4.2677Y-3.1772
X4.2677Y-3.2047
X4.2677Y-3.2323
X4.2677Y-3.2598
X4.2677Y-3.2874
X4.2953Y-2.0197
X4.2953Y-2.0472
X4.2953Y-2.0748
X4.2953Y-2.1024
X4.2953Y-2.1299
X4.2953Y-2.1575
X4.2953Y-2.185
X4.2953Y-2.2126
X4.2953Y-2.2402
X4.2953Y-2.2677
X4.2953Y-2.2953
X4.2953Y-2.3228
X4.2953Y-2.3504
X4.2953Y-2.378
X4.2953Y-2.4055
X4.2953Y-2.4331
X4.2953Y-2.4606
X4.2953Y-2.4882
X4.2953Y-2.5157
X4.2953Y-2.5433
X4.2953Y-2.5709
X4.2953Y-2.5984
X4.2953Y-2.626
X4.2953Y-2.6535
X4.2953Y-2.6811
X4.2953Y-2.7087
X4.2953Y-2.7362
X4.2953Y-2.7638
X4.2953Y-2.7913
X4.2953Y-2.8189
X4.2953Y-2.8465
X4.2953Y-2.874
X4.2953Y-2.9016
X4.2953Y-2.9291
X4.2953Y-2.9567
X4.2953Y-2.9843
X4.2953Y-3.0118
X4.2953Y-3.0394
X4.2953Y-3.0669
X4.2953Y-3.0945
X4.2953Y-3.122
X4.2953Y-3.1496
X4.2953Y-3.1772
X4.2953Y-3.2047
X4.2953Y-3.2323
X4.2953Y-3.2598
X4.2953Y-3.2874
X4.3228Y-2.0197
X4.3228Y-2.0472
X4.3228Y-2.0748
X4.3228Y-2.1024
X4.3228Y-2.1299
X4.3228Y-2.1575
X4.3228Y-2.185
X4.3228Y-2.2126
X4.3228Y-2.2402
X4.3228Y-2.2677
X4.3228Y-2.2953
X4.3228Y-2.3228
X4.3228Y-2.3504
X4.3228Y-2.378
X4.3228Y-2.4055
X4.3228Y-2.4331
X4.3228Y-2.4606
X4.3228Y-2.4882
X4.3228Y-2.5157
X4.3228Y-2.5433
X4.3228Y-2.5709
X4.3228Y-2.5984
X4.3228Y-2.626
X4.3228Y-2.6535
X4.3228Y-2.6811
X4.3228Y-2.7087
X4.3228Y-2.7362
X4.3228Y-2.7638
X4.3228Y-2.7913
X4.3228Y-2.8189
X4.3228Y-2.8465
X4.3228Y-2.874
X4.3228Y-2.9016
X4.3228Y-2.9291
X4.3228Y-2.9567
X4.3228Y-2.9843
X4.3228Y-3.0118
X4.3228Y-3.0394
X4.3228Y-3.0669
X4.3228Y-3.0945
X4.3228Y-3.122
X4.3228Y-3.1496
X4.3228Y-3.1772
X4.3228Y-3.2047
X4.3228Y-3.2323
X4.3228Y-3.2598
X4.3228Y-3.2874
X4.3504Y-2.0197
X4.3504Y-2.0472
X4.3504Y-2.0748
X4.3504Y-2.1024
X4.3504Y-2.1299
X4.3504Y-2.1575
X4.3504Y-2.185
X4.3504Y-2.2126
X4.3504Y-2.2402
X4.3504Y-2.2677
X4.3504Y-2.2953
X4.3504Y-2.3228
X4.3504Y-2.3504
X4.3504Y-2.378
X4.3504Y-2.4055
X4.3504Y-2.4331
X4.3504Y-2.4606
X4.3504Y-2.4882
X4.3504Y-2.5157
X4.3504Y-2.5433
X4.3504Y-2.5709
X4.3504Y-2.5984
X4.3504Y-2.626
X4.3504Y-2.6535
X4.3504Y-2.6811
X4.3504Y-2.7087
X4.3504Y-2.7362
X4.3504Y-2.7638
X4.3504Y-2.7913
X4.3504Y-2.8189
X4.3504Y-2.8465
X4.3504Y-2.874
X4.3504Y-2.9016
X4.3504Y-2.9291
X4.3504Y-2.9567
X4.3504Y-2.9843
X4.3504Y-3.0118
X4.3504Y-3.0394
X4.3504Y-3.0669
X4.3504Y-3.0945
X4.3504Y-3.122
X4.3504Y-3.1496
X4.3504Y-3.1772
X4.3504Y-3.2047
X4.3504Y-3.2323
X4.3504Y-3.2598
X4.3504Y-3.2874
X4.378Y-2.0197
X4.378Y-2.0472
X4.378Y-2.0748
X4.378Y-2.1024
X4.378Y-2.1299
X4.378Y-2.1575
X4.378Y-2.185
X4.378Y-2.2126
X4.378Y-2.2402
X4.378Y-2.2677
X4.378Y-2.2953
X4.378Y-2.3228
X4.378Y-2.3504
X4.378Y-2.378
X4.378Y-2.4055
X4.378Y-2.4331
X4.378Y-2.4606
X4.378Y-2.4882
X4.378Y-2.5157
X4.378Y-2.5433
X4.378Y-2.5709
X4.378Y-2.5984
X4.378Y-2.626
X4.378Y-2.6535
X4.378Y-2.6811
X4.378Y-2.7087
X4.378Y-2.7362
X4.378Y-2.7638
X4.378Y-2.7913
X4.378Y-2.8189
X4.378Y-2.8465
X4.378Y-2.874
X4.378Y-2.9016
X4.378Y-2.9291
X4.378Y-2.9567
X4.378Y-2.9843
X4.378Y-3.0118
X4.378Y-3.0394
X4.378Y-3.0669
X4.378Y-3.0945
X4.378Y-3.122
X4.378Y-3.1496
X4.378Y-3.1772
X4.378Y-3.2047
X4.378Y-3.2323
X4.378Y-3.2598
X4.378Y-3.2874
X4.4055Y-2.0197
X4.4055Y-2.0472
X4.4055Y-2.0748
X4.4055Y-2.1024
X4.4055Y-2.1299
X4.4055Y-2.1575
X4.4055Y-2.185
X4.4055Y-2.2126
X4.4055Y-2.2402
X4.4055Y-2.2677
X4.4055Y-2.2953
X4.4055Y-2.3228
X4.4055Y-2.3504
X4.4055Y-2.378
X4.4055Y-2.4055
X4.4055Y-2.4331
X4.4055Y-2.4606
X4.4055Y-2.4882
X4.4055Y-2.5157
X4.4055Y-2.5433
X4.4055Y-2.5709
X4.4055Y-2.5984
X4.4055Y-2.626
X4.4055Y-2.6535
X4.4055Y-2.6811
X4.4055Y-2.7087
X4.4055Y-2.7362
X4.4055Y-2.7638
X4.4055Y-2.7913
X4.4055Y-2.8189
X4.4055Y-2.8465
X4.4055Y-2.874
X4.4055Y-2.9016
X4.4055Y-2.9291
X4.4055Y-2.9567
X4.4055Y-2.9843
X4.4055Y-3.0118
X4.4055Y-3.0394
X4.4055Y-3.0669
X4.4055Y-3.0945
X4.4055Y-3.122
X4.4055Y-3.1496
X4.4055Y-3.1772
X4.4055Y-3.2047
X4.4055Y-3.2323
X4.4055Y-3.2598
X4.4055Y-3.2874
X4.4331Y-2.0197
X4.4331Y-2.0472
X4.4331Y-2.0748
X4.4331Y-2.1024
X4.4331Y-2.1299
X4.4331Y-2.1575
X4.4331Y-2.185
X4.4331Y-2.2126
X4.4331Y-2.2402
X4.4331Y-2.2677
X4.4331Y-2.2953
X4.4331Y-2.3228
X4.4331Y-2.3504
X4.4331Y-2.378
X4.4331Y-2.4055
X4.4331Y-2.4331
X4.4331Y-2.4606
X4.4331Y-2.4882
X4.4331Y-2.5157
X4.4331Y-2.5433
X4.4331Y-2.5709
X4.4331Y-2.5984
X4.4331Y-2.626
X4.4331Y-2.6535
X4.4331Y-2.6811
X4.4331Y-2.7087
X4.4331Y-2.7362
X4.4331Y-2.7638
X4.4331Y-2.7913
X4.4331Y-2.8189
X4.4331Y-2.8465
X4.4331Y-2.874
X4.4331Y-2.9016
X4.4331Y-2.9291
X4.4331Y-2.9567
X4.4331Y-2.9843
X4.4331Y-3.0118
X4.4331Y-3.0394
X4.4331Y-3.0669
X4.4331Y-3.0945
X4.4331Y-3.122
X4.4331Y-3.1496
X4.4331Y-3.1772
X4.4331Y-3.2047
X4.4331Y-3.2323
X4.4331Y-3.2598
X4.4331Y-3.2874
X4.4606Y-2.0197
X4.4606Y-2.0472
X4.4606Y-2.0748
X4.4606Y-2.1024
X4.4606Y-2.1299
X4.4606Y-2.1575
X4.4606Y-2.185
X4.4606Y-2.2126
X4.4606Y-2.2402
X4.4606Y-2.2677
X4.4606Y-2.2953
X4.4606Y-2.3228
X4.4606Y-2.3504
X4.4606Y-2.378
X4.4606Y-2.4055
X4.4606Y-2.4331
X4.4606Y-2.4606
X4.4606Y-2.4882
X4.4606Y-2.5157
X4.4606Y-2.5433
X4.4606Y-2.5709
X4.4606Y-2.5984
X4.4606Y-2.626
X4.4606Y-2.6535
X4.4606Y-2.6811
X4.4606Y-2.7087
X4.4606Y-2.7362
X4.4606Y-2.7638
X4.4606Y-2.7913
X4.4606Y-2.8189
X4.4606Y-2.8465
X4.4606Y-2.874
X4.4606Y-2.9016
X4.4606Y-2.9291
X4.4606Y-2.9567
X4.4606Y-2.9843
X4.4606Y-3.0118
X4.4606Y-3.0394
X4.4606Y-3.0669
X4.4606Y-3.0945
X4.4606Y-3.122
X4.4606Y-3.1496
X4.4606Y-3.1772
X4.4606Y-3.2047
X4.4606Y-3.2323
X4.4606Y-3.2598
X4.4606Y-3.2874
X4.4882Y-2.0197
X4.4882Y-2.0472
X4.4882Y-2.0748
X4.4882Y-2.1024
X4.4882Y-2.1299
X4.4882Y-2.1575
X4.4882Y-2.185
X4.4882Y-2.2126
X4.4882Y-2.2402
X4.4882Y-2.2677
X4.4882Y-2.2953
X4.4882Y-2.3228
X4.4882Y-2.3504
X4.4882Y-2.378
X4.4882Y-2.4055
X4.4882Y-2.4331
X4.4882Y-2.4606
X4.4882Y-2.4882
X4.4882Y-2.5157
X4.4882Y-2.5433
X4.4882Y-2.5709
X4.4882Y-2.5984
X4.4882Y-2.626
X4.4882Y-2.6535
X4.4882Y-2.6811
X4.4882Y-2.7087
X4.4882Y-2.7362
X4.4882Y-2.7638
X4.4882Y-2.7913
X4.4882Y-2.8189
X4.4882Y-2.8465
X4.4882Y-2.874
X4.4882Y-2.9016
X4.4882Y-2.9291
X4.4882Y-2.9567
X4.4882Y-2.9843
X4.4882Y-3.0118
X4.4882Y-3.0394
X4.4882Y-3.0669
X4.4882Y-3.0945
X4.4882Y-3.122
X4.4882Y-3.1496
X4.4882Y-3.1772
X4.4882Y-3.2047
X4.4882Y-3.2323
X4.4882Y-3.2598
X4.4882Y-3.2874
X4.5157Y-2.0197
X4.5157Y-2.0472
X4.5157Y-2.0748
X4.5157Y-2.1024
X4.5157Y-2.1299
X4.5157Y-2.1575
X4.5157Y-2.185
X4.5157Y-2.2126
X4.5157Y-2.2402
X4.5157Y-2.2677
X4.5157Y-2.2953
X4.5157Y-2.3228
X4.5157Y-2.3504
X4.5157Y-2.378
X4.5157Y-2.4055
X4.5157Y-2.4331
X4.5157Y-2.4606
X4.5157Y-2.4882
X4.5157Y-2.5157
X4.5157Y-2.5433
X4.5157Y-2.5709
X4.5157Y-2.5984
X4.5157Y-2.626
X4.5157Y-2.6535
X4.5157Y-2.6811
X4.5157Y-2.7087
X4.5157Y-2.7362
X4.5157Y-2.7638
X4.5157Y-2.7913
X4.5157Y-2.8189
X4.5157Y-2.8465
X4.5157Y-2.874
X4.5157Y-2.9016
X4.5157Y-2.9291
X4.5157Y-2.9567
X4.5157Y-2.9843
X4.5157Y-3.0118
X4.5157Y-3.0394
X4.5157Y-3.0669
X4.5157Y-3.0945
X4.5157Y-3.122
X4.5157Y-3.1496
X4.5157Y-3.1772
X4.5157Y-3.2047
X4.5157Y-3.2323
X4.5157Y-3.2598
X4.5157Y-3.2874
X4.5433Y-2.0197
X4.5433Y-2.0472
X4.5433Y-2.0748
X4.5433Y-2.1024
X4.5433Y-2.1299
X4.5433Y-2.1575
X4.5433Y-2.185
X4.5433Y-2.2126
X4.5433Y-2.2402
X4.5433Y-2.2677
X4.5433Y-2.2953
X4.5433Y-2.3228
X4.5433Y-2.3504
X4.5433Y-2.378
X4.5433Y-2.4055
X4.5433Y-2.4331
X4.5433Y-2.4606
X4.5433Y-2.4882
X4.5433Y-2.5157
X4.5433Y-2.5433
X4.5433Y-2.5709
X4.5433Y-2.5984
X4.5433Y-2.626
X4.5433Y-2.6535
X4.5433Y-2.6811
X4.5433Y-2.7087
X4.5433Y-2.7362
X4.5433Y-2.7638
X4.5433Y-2.7913
X4.5433Y-2.8189
X4.5433Y-2.8465
X4.5433Y-2.874
X4.5433Y-2.9016
X4.5433Y-2.9291
X4.5433Y-2.9567
X4.5433Y-2.9843
X4.5433Y-3.0118
X4.5433Y-3.0394
X4.5433Y-3.0669
X4.5433Y-3.0945
X4.5433Y-3.122
X4.5433Y-3.1496
X4.5433Y-3.1772
X4.5433Y-3.2047
X4.5433Y-3.2323
X4.5433Y-3.2598
X4.5433Y-3.2874
X4.5709Y-2.0197
X4.5709Y-2.0472
X4.5709Y-2.0748
X4.5709Y-2.1024
X4.5709Y-2.1299
X4.5709Y-2.1575
X4.5709Y-2.185
X4.5709Y-2.2126
X4.5709Y-2.2402
X4.5709Y-2.2677
X4.5709Y-2.2953
X4.5709Y-2.3228
X4.5709Y-2.3504
X4.5709Y-2.378
X4.5709Y-2.4055
X4.5709Y-2.4331
X4.5709Y-2.4606
X4.5709Y-2.4882
X4.5709Y-2.5157
X4.5709Y-2.5433
X4.5709Y-2.5709
X4.5709Y-2.5984
X4.5709Y-2.626
X4.5709Y-2.6535
X4.5709Y-2.6811
X4.5709Y-2.7087
X4.5709Y-2.7362
X4.5709Y-2.7638
X4.5709Y-2.7913
X4.5709Y-2.8189
X4.5709Y-2.8465
X4.5709Y-2.874
X4.5709Y-2.9016
X4.5709Y-2.9291
X4.5709Y-2.9567
X4.5709Y-2.9843
X4.5709Y-3.0118
X4.5709Y-3.0394
X4.5709Y-3.0669
X4.5709Y-3.0945
X4.5709Y-3.122
X4.5709Y-3.1496
X4.5709Y-3.1772
X4.5709Y-3.2047
X4.5709Y-3.2323
X4.5709Y-3.2598
X4.5709Y-3.2874
X4.5984Y-2.0197
X4.5984Y-2.0472
X4.5984Y-2.0748
X4.5984Y-2.1024
X4.5984Y-2.1299
X4.5984Y-2.1575
X4.5984Y-2.185
X4.5984Y-2.2126
X4.5984Y-2.2402
X4.5984Y-2.2677
X4.5984Y-2.2953
X4.5984Y-2.3228
X4.5984Y-2.3504
X4.5984Y-2.378
X4.5984Y-2.4055
X4.5984Y-2.4331
X4.5984Y-2.4606
X4.5984Y-2.4882
X4.5984Y-2.5157
X4.5984Y-2.5433
X4.5984Y-2.5709
X4.5984Y-2.5984
X4.5984Y-2.6811
X4.5984Y-2.7087
X4.5984Y-2.7362
X4.5984Y-2.7638
X4.5984Y-2.7913
X4.5984Y-2.8189
X4.5984Y-2.8465
X4.5984Y-2.874
X4.5984Y-2.9016
X4.5984Y-2.9291
X4.5984Y-2.9567
X4.5984Y-2.9843
X4.5984Y-3.0118
X4.5984Y-3.0394
X4.5984Y-3.0669
X4.5984Y-3.0945
X4.5984Y-3.122
X4.5984Y-3.1496
X4.5984Y-3.1772
X4.5984Y-3.2047
X4.5984Y-3.2323
X4.5984Y-3.2598
X4.5984Y-3.2874
X4.6535Y-2.0197
X4.6535Y-2.0472
X4.6535Y-2.0748
X4.6535Y-2.1024
X4.6535Y-2.1299
X4.6535Y-2.1575
X4.6535Y-2.185
X4.6535Y-2.2126
X4.6535Y-2.2402
X4.6535Y-2.2677
X4.6535Y-2.2953
X4.6535Y-2.3228
X4.6535Y-2.3504
X4.6535Y-2.378
X4.6535Y-2.4055
X4.6535Y-2.4331
X4.6535Y-2.4606
X4.6535Y-2.4882
X4.6535Y-2.5157
X4.6535Y-2.5433
X4.6535Y-2.5709
X4.6535Y-2.5984
X4.6535Y-2.6811
X4.6535Y-2.7087
X4.6535Y-2.7362
X4.6535Y-2.7638
X4.6535Y-2.7913
X4.6535Y-2.8189
X4.6535Y-2.8465
X4.6535Y-2.874
X4.6535Y-2.9016
X4.6535Y-2.9291
X4.6535Y-2.9567
X4.6535Y-2.9843
X4.6535Y-3.0118
X4.6535Y-3.0394
X4.6535Y-3.0669
X4.6535Y-3.0945
X4.6535Y-3.122
X4.6535Y-3.1496
X4.6535Y-3.1772
X4.6535Y-3.2047
X4.6535Y-3.2323
X4.6535Y-3.2598
X4.6535Y-3.2874
X4.6811Y-2.0197
X4.6811Y-2.0472
X4.6811Y-2.0748
X4.6811Y-2.1024
X4.6811Y-2.1299
X4.6811Y-2.1575
X4.6811Y-2.185
X4.6811Y-2.2126
X4.6811Y-2.2402
X4.6811Y-2.2677
X4.6811Y-2.2953
X4.6811Y-2.3228
X4.6811Y-2.3504
X4.6811Y-2.378
X4.6811Y-2.4055
X4.6811Y-2.4331
X4.6811Y-2.4606
X4.6811Y-2.4882
X4.6811Y-2.5157
X4.6811Y-2.5433
X4.6811Y-2.5709
X4.6811Y-2.5984
X4.6811Y-2.626
X4.6811Y-2.6535
X4.6811Y-2.6811
X4.6811Y-2.7087
X4.6811Y-2.7362
X4.6811Y-2.7638
X4.6811Y-2.7913
X4.6811Y-2.8189
X4.6811Y-2.8465
X4.6811Y-2.874
X4.6811Y-2.9016
X4.6811Y-2.9291
X4.6811Y-2.9567
X4.6811Y-2.9843
X4.6811Y-3.0118
X4.6811Y-3.0394
X4.6811Y-3.0669
X4.6811Y-3.0945
X4.6811Y-3.122
X4.6811Y-3.1496
X4.6811Y-3.1772
X4.6811Y-3.2047
X4.6811Y-3.2323
X4.6811Y-3.2598
X4.6811Y-3.2874
X4.7087Y-2.0197
X4.7087Y-2.0472
X4.7087Y-2.0748
X4.7087Y-2.1024
X4.7087Y-2.1299
X4.7087Y-2.1575
X4.7087Y-2.185
X4.7087Y-2.2126
X4.7087Y-2.2402
X4.7087Y-2.2677
X4.7087Y-2.2953
X4.7087Y-2.3228
X4.7087Y-2.3504
X4.7087Y-2.378
X4.7087Y-2.4055
X4.7087Y-2.4331
X4.7087Y-2.4606
X4.7087Y-2.4882
X4.7087Y-2.5157
X4.7087Y-2.5433
X4.7087Y-2.5709
X4.7087Y-2.5984
X4.7087Y-2.626
X4.7087Y-2.6535
X4.7087Y-2.6811
X4.7087Y-2.7087
X4.7087Y-2.7362
X4.7087Y-2.7638
X4.7087Y-2.7913
X4.7087Y-2.8189
X4.7087Y-2.8465
X4.7087Y-2.874
X4.7087Y-2.9016
X4.7087Y-2.9291
X4.7087Y-2.9567
X4.7087Y-2.9843
X4.7087Y-3.0118
X4.7087Y-3.0394
X4.7087Y-3.0669
X4.7087Y-3.0945
X4.7087Y-3.122
X4.7087Y-3.1496
X4.7087Y-3.1772
X4.7087Y-3.2047
X4.7087Y-3.2323
X4.7087Y-3.2598
X4.7087Y-3.2874
X4.7362Y-2.0197
X4.7362Y-2.0472
X4.7362Y-2.0748
X4.7362Y-2.1024
X4.7362Y-2.1299
X4.7362Y-2.1575
X4.7362Y-2.185
X4.7362Y-2.2126
X4.7362Y-2.2402
X4.7362Y-2.2677
X4.7362Y-2.2953
X4.7362Y-2.3228
X4.7362Y-2.3504
X4.7362Y-2.378
X4.7362Y-2.4055
X4.7362Y-2.4331
X4.7362Y-2.4606
X4.7362Y-2.4882
X4.7362Y-2.5157
X4.7362Y-2.5433
X4.7362Y-2.5709
X4.7362Y-2.5984
X4.7362Y-2.626
X4.7362Y-2.6535
X4.7362Y-2.6811
X4.7362Y-2.7087
X4.7362Y-2.7362
X4.7362Y-2.7638
X4.7362Y-2.7913
X4.7362Y-2.8189
X4.7362Y-2.8465
X4.7362Y-2.874
X4.7362Y-2.9016
X4.7362Y-2.9291
X4.7362Y-2.9567
X4.7362Y-2.9843
X4.7362Y-3.0118
X4.7362Y-3.0394
X4.7362Y-3.0669
X4.7362Y-3.0945
X4.7362Y-3.122
X4.7362Y-3.1496
X4.7362Y-3.1772
X4.7362Y-3.2047
X4.7362Y-3.2323
X4.7362Y-3.2598
X4.7362Y-3.2874
X4.7638Y-2.0197
X4.7638Y-2.0472
X4.7638Y-2.0748
X4.7638Y-2.1024
X4.7638Y-2.1299
X4.7638Y-2.1575
X4.7638Y-2.185
X4.7638Y-2.2126
X4.7638Y-2.2402
X4.7638Y-2.2677
X4.7638Y-2.2953
X4.7638Y-2.3228
X4.7638Y-2.3504
X4.7638Y-2.378
X4.7638Y-2.4055
X4.7638Y-2.4331
X4.7638Y-2.4606
X4.7638Y-2.4882
X4.7638Y-2.5157
X4.7638Y-2.5433
X4.7638Y-2.5709
X4.7638Y-2.5984
X4.7638Y-2.626
X4.7638Y-2.6535
X4.7638Y-2.6811
X4.7638Y-2.7087
X4.7638Y-2.7362
X4.7638Y-2.7638
X4.7638Y-2.7913
X4.7638Y-2.8189
X4.7638Y-2.8465
X4.7638Y-2.874
X4.7638Y-2.9016
X4.7638Y-2.9291
X4.7638Y-2.9567
X4.7638Y-2.9843
X4.7638Y-3.0118
X4.7638Y-3.0394
X4.7638Y-3.0669
X4.7638Y-3.0945
X4.7638Y-3.122
X4.7638Y-3.1496
X4.7638Y-3.1772
X4.7638Y-3.2047
X4.7638Y-3.2323
X4.7638Y-3.2598
X4.7638Y-3.2874
X4.7913Y-2.0197
X4.7913Y-2.0472
X4.7913Y-2.0748
X4.7913Y-2.1024
X4.7913Y-2.1299
X4.7913Y-2.1575
X4.7913Y-2.185
X4.7913Y-2.2126
X4.7913Y-2.2402
X4.7913Y-2.2677
X4.7913Y-2.2953
X4.7913Y-2.3228
X4.7913Y-2.3504
X4.7913Y-2.378
X4.7913Y-2.4055
X4.7913Y-2.4331
X4.7913Y-2.4606
X4.7913Y-2.4882
X4.7913Y-2.5157
X4.7913Y-2.5433
X4.7913Y-2.5709
X4.7913Y-2.5984
X4.7913Y-2.626
X4.7913Y-2.6535
X4.7913Y-2.6811
X4.7913Y-2.7087
X4.7913Y-2.7362
X4.7913Y-2.7638
X4.7913Y-2.7913
X4.7913Y-2.8189
X4.7913Y-2.8465
X4.7913Y-2.874
X4.7913Y-2.9016
X4.7913Y-2.9291
X4.7913Y-2.9567
X4.7913Y-2.9843
X4.7913Y-3.0118
X4.7913Y-3.0394
X4.7913Y-3.0669
X4.7913Y-3.0945
X4.7913Y-3.122
X4.7913Y-3.1496
X4.7913Y-3.1772
X4.7913Y-3.2047
X4.7913Y-3.2323
X4.7913Y-3.2598
X4.7913Y-3.2874
X4.8189Y-2.0197
X4.8189Y-2.0472
X4.8189Y-2.0748
X4.8189Y-2.1024
X4.8189Y-2.1299
X4.8189Y-2.1575
X4.8189Y-2.185
X4.8189Y-2.2126
X4.8189Y-2.2402
X4.8189Y-2.2677
X4.8189Y-2.2953
X4.8189Y-2.3228
X4.8189Y-2.3504
X4.8189Y-2.378
X4.8189Y-2.4055
X4.8189Y-2.4331
X4.8189Y-2.4606
X4.8189Y-2.4882
X4.8189Y-2.5157
X4.8189Y-2.5433
X4.8189Y-2.5709
X4.8189Y-2.5984
X4.8189Y-2.626
X4.8189Y-2.6535
X4.8189Y-2.6811
X4.8189Y-2.7087
X4.8189Y-2.7362
X4.8189Y-2.7638
X4.8189Y-2.7913
X4.8189Y-2.8189
X4.8189Y-2.8465
X4.8189Y-2.874
X4.8189Y-2.9016
X4.8189Y-2.9291
X4.8189Y-2.9567
X4.8189Y-2.9843
X4.8189Y-3.0118
X4.8189Y-3.0394
X4.8189Y-3.0669
X4.8189Y-3.0945
X4.8189Y-3.122
X4.8189Y-3.1496
X4.8189Y-3.1772
X4.8189Y-3.2047
X4.8189Y-3.2323
X4.8189Y-3.2598
X4.8189Y-3.2874
X4.8465Y-2.0197
X4.8465Y-2.0472
X4.8465Y-2.0748
X4.8465Y-2.1024
X4.8465Y-2.1299
X4.8465Y-2.1575
X4.8465Y-2.185
X4.8465Y-2.2126
X4.8465Y-2.2402
X4.8465Y-2.2677
X4.8465Y-2.2953
X4.8465Y-2.3228
X4.8465Y-2.3504
X4.8465Y-2.378
X4.8465Y-2.4055
X4.8465Y-2.4331
X4.8465Y-2.4606
X4.8465Y-2.4882
X4.8465Y-2.5157
X4.8465Y-2.5433
X4.8465Y-2.5709
X4.8465Y-2.5984
X4.8465Y-2.626
X4.8465Y-2.6535
X4.8465Y-2.6811
X4.8465Y-2.7087
X4.8465Y-2.7362
X4.8465Y-2.7638
X4.8465Y-2.7913
X4.8465Y-2.8189
X4.8465Y-2.8465
X4.8465Y-2.874
X4.8465Y-2.9016
X4.8465Y-2.9291
X4.8465Y-2.9567
X4.8465Y-2.9843
X4.8465Y-3.0118
X4.8465Y-3.0394
X4.8465Y-3.0669
X4.8465Y-3.0945
X4.8465Y-3.122
X4.8465Y-3.1496
X4.8465Y-3.1772
X4.8465Y-3.2047
X4.8465Y-3.2323
X4.8465Y-3.2598
X4.8465Y-3.2874
X4.874Y-2.0197
X4.874Y-2.0472
X4.874Y-2.0748
X4.874Y-2.1024
X4.874Y-2.1299
X4.874Y-2.1575
X4.874Y-2.185
X4.874Y-2.2126
X4.874Y-2.2402
X4.874Y-2.2677
X4.874Y-2.2953
X4.874Y-2.3228
X4.874Y-2.3504
X4.874Y-2.378
X4.874Y-2.4055
X4.874Y-2.4331
X4.874Y-2.4606
X4.874Y-2.4882
X4.874Y-2.5157
X4.874Y-2.5433
X4.874Y-2.5709
X4.874Y-2.5984
X4.874Y-2.626
X4.874Y-2.6535
X4.874Y-2.6811
X4.874Y-2.7087
X4.874Y-2.7362
X4.874Y-2.7638
X4.874Y-2.7913
X4.874Y-2.8189
X4.874Y-2.8465
X4.874Y-2.874
X4.874Y-2.9016
X4.874Y-2.9291
X4.874Y-2.9567
X4.874Y-2.9843
X4.874Y-3.0118
X4.874Y-3.0394
X4.874Y-3.0669
X4.874Y-3.0945
X4.874Y-3.122
X4.874Y-3.1496
X4.874Y-3.1772
X4.874Y-3.2047
X4.874Y-3.2323
X4.874Y-3.2598
X4.874Y-3.2874
X4.9016Y-2.0197
X4.9016Y-2.0472
X4.9016Y-2.0748
X4.9016Y-2.1024
X4.9016Y-2.1299
X4.9016Y-2.1575
X4.9016Y-2.185
X4.9016Y-2.2126
X4.9016Y-2.2402
X4.9016Y-2.2677
X4.9016Y-2.2953
X4.9016Y-2.3228
X4.9016Y-2.3504
X4.9016Y-2.378
X4.9016Y-2.4055
X4.9016Y-2.4331
X4.9016Y-2.4606
X4.9016Y-2.4882
X4.9016Y-2.5157
X4.9016Y-2.5433
X4.9016Y-2.5709
X4.9016Y-2.5984
X4.9016Y-2.626
X4.9016Y-2.6535
X4.9016Y-2.6811
X4.9016Y-2.7087
X4.9016Y-2.7362
X4.9016Y-2.7638
X4.9016Y-2.7913
X4.9016Y-2.8189
X4.9016Y-2.8465
X4.9016Y-2.874
X4.9016Y-2.9016
X4.9016Y-2.9291
X4.9016Y-2.9567
X4.9016Y-2.9843
X4.9016Y-3.0118
X4.9016Y-3.0394
X4.9016Y-3.0669
X4.9016Y-3.0945
X4.9016Y-3.122
X4.9016Y-3.1496
X4.9016Y-3.1772
X4.9016Y-3.2047
X4.9016Y-3.2323
X4.9016Y-3.2598
X4.9016Y-3.2874
X4.9291Y-2.0197
X4.9291Y-2.0472
X4.9291Y-2.0748
X4.9291Y-2.1024
X4.9291Y-2.1299
X4.9291Y-2.1575
X4.9291Y-2.185
X4.9291Y-2.2126
X4.9291Y-2.2402
X4.9291Y-2.2677
X4.9291Y-2.2953
X4.9291Y-2.3228
X4.9291Y-2.3504
X4.9291Y-2.378
X4.9291Y-2.4055
X4.9291Y-2.4331
X4.9291Y-2.4606
X4.9291Y-2.4882
X4.9291Y-2.5157
X4.9291Y-2.5433
X4.9291Y-2.5709
X4.9291Y-2.5984
X4.9291Y-2.626
X4.9291Y-2.6535
X4.9291Y-2.6811
X4.9291Y-2.7087
X4.9291Y-2.7362
X4.9291Y-2.7638
X4.9291Y-2.7913
X4.9291Y-2.8189
X4.9291Y-2.8465
X4.9291Y-2.874
X4.9291Y-2.9016
X4.9291Y-2.9291
X4.9291Y-2.9567
X4.9291Y-2.9843
X4.9291Y-3.0118
X4.9291Y-3.0394
X4.9291Y-3.0669
X4.9291Y-3.0945
X4.9291Y-3.122
X4.9291Y-3.1496
X4.9291Y-3.1772
X4.9291Y-3.2047
X4.9291Y-3.2323
X4.9291Y-3.2598
X4.9291Y-3.2874
X4.9567Y-2.0197
X4.9567Y-2.0472
X4.9567Y-2.0748
X4.9567Y-2.1024
X4.9567Y-2.1299
X4.9567Y-2.1575
X4.9567Y-2.185
X4.9567Y-2.2126
X4.9567Y-2.2402
X4.9567Y-2.2677
X4.9567Y-2.2953
X4.9567Y-2.3228
X4.9567Y-2.3504
X4.9567Y-2.378
X4.9567Y-2.4055
X4.9567Y-2.4331
X4.9567Y-2.4606
X4.9567Y-2.4882
X4.9567Y-2.5157
X4.9567Y-2.5433
X4.9567Y-2.5709
X4.9567Y-2.5984
X4.9567Y-2.626
X4.9567Y-2.6535
X4.9567Y-2.6811
X4.9567Y-2.7087
X4.9567Y-2.7362
X4.9567Y-2.7638
X4.9567Y-2.7913
X4.9567Y-2.8189
X4.9567Y-2.8465
X4.9567Y-2.874
X4.9567Y-2.9016
X4.9567Y-2.9291
X4.9567Y-2.9567
X4.9567Y-2.9843
X4.9567Y-3.0118
X4.9567Y-3.0394
X4.9567Y-3.0669
X4.9567Y-3.0945
X4.9567Y-3.122
X4.9567Y-3.1496
X4.9567Y-3.1772
X4.9567Y-3.2047
X4.9567Y-3.2323
X4.9567Y-3.2598
X4.9567Y-3.2874
X4.9843Y-2.0197
X4.9843Y-2.0472
X4.9843Y-2.0748
X4.9843Y-2.1024
X4.9843Y-2.1299
X4.9843Y-2.1575
X4.9843Y-2.185
X4.9843Y-2.2126
X4.9843Y-2.2402
X4.9843Y-2.2677
X4.9843Y-2.2953
X4.9843Y-2.3228
X4.9843Y-2.3504
X4.9843Y-2.378
X4.9843Y-2.4055
X4.9843Y-2.4331
X4.9843Y-2.4606
X4.9843Y-2.4882
X4.9843Y-2.5157
X4.9843Y-2.5433
X4.9843Y-2.5709
X4.9843Y-2.5984
X4.9843Y-2.626
X4.9843Y-2.6535
X4.9843Y-2.6811
X4.9843Y-2.7087
X4.9843Y-2.7362
X4.9843Y-2.7638
X4.9843Y-2.7913
X4.9843Y-2.8189
X4.9843Y-2.8465
X4.9843Y-2.874
X4.9843Y-2.9016
X4.9843Y-2.9291
X4.9843Y-2.9567
X4.9843Y-2.9843
X4.9843Y-3.0118
X4.9843Y-3.0394
X4.9843Y-3.0669
X4.9843Y-3.0945
X4.9843Y-3.122
X4.9843Y-3.1496
X4.9843Y-3.1772
X4.9843Y-3.2047
X4.9843Y-3.2323
X4.9843Y-3.2598
X4.9843Y-3.2874
X5.0118Y-2.0197
X5.0118Y-2.0472
X5.0118Y-2.0748
X5.0118Y-2.1024
X5.0118Y-2.1299
X5.0118Y-2.1575
X5.0118Y-2.185
X5.0118Y-2.2126
X5.0118Y-2.2402
X5.0118Y-2.2677
X5.0118Y-2.2953
X5.0118Y-2.3228
X5.0118Y-2.3504
X5.0118Y-2.378
X5.0118Y-2.4055
X5.0118Y-2.4331
X5.0118Y-2.4606
X5.0118Y-2.4882
X5.0118Y-2.5157
X5.0118Y-2.5433
X5.0118Y-2.5709
X5.0118Y-2.5984
X5.0118Y-2.626
X5.0118Y-2.6535
X5.0118Y-2.6811
X5.0118Y-2.7087
X5.0118Y-2.7362
X5.0118Y-2.7638
X5.0118Y-2.7913
X5.0118Y-2.8189
X5.0118Y-2.8465
X5.0118Y-2.874
X5.0118Y-2.9016
X5.0118Y-2.9291
X5.0118Y-2.9567
X5.0118Y-2.9843
X5.0118Y-3.0118
X5.0118Y-3.0394
X5.0118Y-3.0669
X5.0118Y-3.0945
X5.0118Y-3.122
X5.0118Y-3.1496
X5.0118Y-3.1772
X5.0118Y-3.2047
X5.0118Y-3.2323
X5.0118Y-3.2598
X5.0118Y-3.2874
X5.0394Y-2.0197
X5.0394Y-2.0472
X5.0394Y-2.0748
X5.0394Y-2.1024
X5.0394Y-2.1299
X5.0394Y-2.1575
X5.0394Y-2.185
X5.0394Y-2.2126
X5.0394Y-2.2402
X5.0394Y-2.2677
X5.0394Y-2.2953
X5.0394Y-2.3228
X5.0394Y-2.3504
X5.0394Y-2.378
X5.0394Y-2.4055
X5.0394Y-2.4331
X5.0394Y-2.4606
X5.0394Y-2.4882
X5.0394Y-2.5157
X5.0394Y-2.5433
X5.0394Y-2.5709
X5.0394Y-2.5984
X5.0394Y-2.626
X5.0394Y-2.6535
X5.0394Y-2.6811
X5.0394Y-2.7087
X5.0394Y-2.7362
X5.0394Y-2.7638
X5.0394Y-2.7913
X5.0394Y-2.8189
X5.0394Y-2.8465
X5.0394Y-2.874
X5.0394Y-2.9016
X5.0394Y-2.9291
X5.0394Y-2.9567
X5.0394Y-2.9843
X5.0394Y-3.0118
X5.0394Y-3.0394
X5.0394Y-3.0669
X5.0394Y-3.0945
X5.0394Y-3.122
X5.0394Y-3.1496
X5.0394Y-3.1772
X5.0394Y-3.2047
X5.0394Y-3.2323
X5.0394Y-3.2598
X5.0394Y-3.2874
X5.0669Y-2.0197
X5.0669Y-2.0472
X5.0669Y-2.0748
X5.0669Y-2.1024
X5.0669Y-2.1299
X5.0669Y-2.1575
X5.0669Y-2.185
X5.0669Y-2.2126
X5.0669Y-2.2402
X5.0669Y-2.2677
X5.0669Y-2.2953
X5.0669Y-2.3228
X5.0669Y-2.3504
X5.0669Y-2.378
X5.0669Y-2.4055
X5.0669Y-2.4331
X5.0669Y-2.4606
X5.0669Y-2.4882
X5.0669Y-2.5157
X5.0669Y-2.5433
X5.0669Y-2.5709
X5.0669Y-2.5984
X5.0669Y-2.626
X5.0669Y-2.6535
X5.0669Y-2.6811
X5.0669Y-2.7087
X5.0669Y-2.7362
X5.0669Y-2.7638
X5.0669Y-2.7913
X5.0669Y-2.8189
X5.0669Y-2.8465
X5.0669Y-2.874
X5.0669Y-2.9016
X5.0669Y-2.9291
X5.0669Y-2.9567
X5.0669Y-2.9843
X5.0669Y-3.0118
X5.0669Y-3.0394
X5.0669Y-3.0669
X5.0669Y-3.0945
X5.0669Y-3.122
X5.0669Y-3.1496
X5.0669Y-3.1772
X5.0669Y-3.2047
X5.0669Y-3.2323
X5.0669Y-3.2598
X5.0669Y-3.2874
X5.0945Y-2.0197
X5.0945Y-2.0472
X5.0945Y-2.0748
X5.0945Y-2.1024
X5.0945Y-2.1299
X5.0945Y-2.1575
X5.0945Y-2.185
X5.0945Y-2.2126
X5.0945Y-2.2402
X5.0945Y-2.2677
X5.0945Y-2.2953
X5.0945Y-2.3228
X5.0945Y-2.3504
X5.0945Y-2.378
X5.0945Y-2.4055
X5.0945Y-2.4331
X5.0945Y-2.4606
X5.0945Y-2.4882
X5.0945Y-2.5157
X5.0945Y-2.5433
X5.0945Y-2.5709
X5.0945Y-2.5984
X5.0945Y-2.626
X5.0945Y-2.6535
X5.0945Y-2.6811
X5.0945Y-2.7087
X5.0945Y-2.7362
X5.0945Y-2.7638
X5.0945Y-2.7913
X5.0945Y-2.8189
X5.0945Y-2.8465
X5.0945Y-2.874
X5.0945Y-2.9016
X5.0945Y-2.9291
X5.0945Y-2.9567
X5.0945Y-2.9843
X5.0945Y-3.0118
X5.0945Y-3.0394
X5.0945Y-3.0669
X5.0945Y-3.0945
X5.0945Y-3.122
X5.0945Y-3.1496
X5.0945Y-3.1772
X5.0945Y-3.2047
X5.0945Y-3.2323
X5.0945Y-3.2598
X5.0945Y-3.2874
X5.122Y-2.0197
X5.122Y-2.0472
X5.122Y-2.0748
X5.122Y-2.1024
X5.122Y-2.1299
X5.122Y-2.1575
X5.122Y-2.185
X5.122Y-2.2126
X5.122Y-2.2402
X5.122Y-2.2677
X5.122Y-2.2953
X5.122Y-2.3228
X5.122Y-2.3504
X5.122Y-2.378
X5.122Y-2.4055
X5.122Y-2.4331
X5.122Y-2.4606
X5.122Y-2.4882
X5.122Y-2.5157
X5.122Y-2.5433
X5.122Y-2.5709
X5.122Y-2.5984
X5.122Y-2.626
X5.122Y-2.6535
X5.122Y-2.6811
X5.122Y-2.7087
X5.122Y-2.7362
X5.122Y-2.7638
X5.122Y-2.7913
X5.122Y-2.8189
X5.122Y-2.8465
X5.122Y-2.874
X5.122Y-2.9016
X5.122Y-2.9291
X5.122Y-2.9567
X5.122Y-2.9843
X5.122Y-3.0118
X5.122Y-3.0394
X5.122Y-3.0669
X5.122Y-3.0945
X5.122Y-3.122
X5.122Y-3.1496
X5.122Y-3.1772
X5.122Y-3.2047
X5.122Y-3.2323
X5.122Y-3.2598
X5.122Y-3.2874
X5.1496Y-2.0197
X5.1496Y-2.0472
X5.1496Y-2.0748
X5.1496Y-2.1024
X5.1496Y-2.1299
X5.1496Y-2.1575
X5.1496Y-2.185
X5.1496Y-2.2126
X5.1496Y-2.2402
X5.1496Y-2.2677
X5.1496Y-2.2953
X5.1496Y-2.3228
X5.1496Y-2.3504
X5.1496Y-2.378
X5.1496Y-2.4055
X5.1496Y-2.4331
X5.1496Y-2.4606
X5.1496Y-2.4882
X5.1496Y-2.5157
X5.1496Y-2.5433
X5.1496Y-2.5709
X5.1496Y-2.5984
X5.1496Y-2.626
X5.1496Y-2.6535
X5.1496Y-2.6811
X5.1496Y-2.7087
X5.1496Y-2.7362
X5.1496Y-2.7638
X5.1496Y-2.7913
X5.1496Y-2.8189
X5.1496Y-2.8465
X5.1496Y-2.874
X5.1496Y-2.9016
X5.1496Y-2.9291
X5.1496Y-2.9567
X5.1496Y-2.9843
X5.1496Y-3.0118
X5.1496Y-3.0394
X5.1496Y-3.0669
X5.1496Y-3.0945
X5.1496Y-3.122
X5.1496Y-3.1496
X5.1496Y-3.1772
X5.1496Y-3.2047
X5.1496Y-3.2323
X5.1496Y-3.2598
X5.1496Y-3.2874
X5.1772Y-2.0197
X5.1772Y-2.0472
X5.1772Y-2.0748
X5.1772Y-2.1024
X5.1772Y-2.1299
X5.1772Y-2.1575
X5.1772Y-2.185
X5.1772Y-2.2126
X5.1772Y-2.2402
X5.1772Y-2.2677
X5.1772Y-2.2953
X5.1772Y-2.3228
X5.1772Y-2.3504
X5.1772Y-2.378
X5.1772Y-2.4055
X5.1772Y-2.4331
X5.1772Y-2.4606
X5.1772Y-2.4882
X5.1772Y-2.5157
X5.1772Y-2.5433
X5.1772Y-2.5709
X5.1772Y-2.5984
X5.1772Y-2.626
X5.1772Y-2.6535
X5.1772Y-2.6811
X5.1772Y-2.7087
X5.1772Y-2.7362
X5.1772Y-2.7638
X5.1772Y-2.7913
X5.1772Y-2.8189
X5.1772Y-2.8465
X5.1772Y-2.874
X5.1772Y-2.9016
X5.1772Y-2.9291
X5.1772Y-2.9567
X5.1772Y-2.9843
X5.1772Y-3.0118
X5.1772Y-3.0394
X5.1772Y-3.0669
X5.1772Y-3.0945
X5.1772Y-3.122
X5.1772Y-3.1496
X5.1772Y-3.1772
X5.1772Y-3.2047
X5.1772Y-3.2323
X5.1772Y-3.2598
X5.1772Y-3.2874
X5.2047Y-2.0197
X5.2047Y-2.0472
X5.2047Y-2.0748
X5.2047Y-2.1024
X5.2047Y-2.1299
X5.2047Y-2.1575
X5.2047Y-2.185
X5.2047Y-2.2126
X5.2047Y-2.2402
X5.2047Y-2.2677
X5.2047Y-2.2953
X5.2047Y-2.3228
X5.2047Y-2.3504
X5.2047Y-2.378
X5.2047Y-2.4055
X5.2047Y-2.4331
X5.2047Y-2.4606
X5.2047Y-2.4882
X5.2047Y-2.5157
X5.2047Y-2.5433
X5.2047Y-2.5709
X5.2047Y-2.5984
X5.2047Y-2.626
X5.2047Y-2.6535
X5.2047Y-2.6811
X5.2047Y-2.7087
X5.2047Y-2.7362
X5.2047Y-2.7638
X5.2047Y-2.7913
X5.2047Y-2.8189
X5.2047Y-2.8465
X5.2047Y-2.874
X5.2047Y-2.9016
X5.2047Y-2.9291
X5.2047Y-2.9567
X5.2047Y-2.9843
X5.2047Y-3.0118
X5.2047Y-3.0394
X5.2047Y-3.0669
X5.2047Y-3.0945
X5.2047Y-3.122
X5.2047Y-3.1496
X5.2047Y-3.1772
X5.2047Y-3.2047
X5.2047Y-3.2323
X5.2047Y-3.2598
X5.2047Y-3.2874
X5.2323Y-2.0197
X5.2323Y-2.0472
X5.2323Y-2.0748
X5.2323Y-2.1024
X5.2323Y-2.1299
X5.2323Y-2.1575
X5.2323Y-2.185
X5.2323Y-2.2126
X5.2323Y-2.2402
X5.2323Y-2.2677
X5.2323Y-2.2953
X5.2323Y-2.3228
X5.2323Y-2.3504
X5.2323Y-2.378
X5.2323Y-2.4055
X5.2323Y-2.4331
X5.2323Y-2.4606
X5.2323Y-2.4882
X5.2323Y-2.5157
X5.2323Y-2.5433
X5.2323Y-2.5709
X5.2323Y-2.5984
X5.2323Y-2.626
X5.2323Y-2.6535
X5.2323Y-2.6811
X5.2323Y-2.7087
X5.2323Y-2.7362
X5.2323Y-2.7638
X5.2323Y-2.7913
X5.2323Y-2.8189
X5.2323Y-2.8465
X5.2323Y-2.874
X5.2323Y-2.9016
X5.2323Y-2.9291
X5.2323Y-2.9567
X5.2323Y-2.9843
X5.2323Y-3.0118
X5.2323Y-3.0394
X5.2323Y-3.0669
X5.2323Y-3.0945
X5.2323Y-3.122
X5.2323Y-3.1496
X5.2323Y-3.1772
X5.2323Y-3.2047
X5.2323Y-3.2323
X5.2323Y-3.2598
X5.2323Y-3.2874
X5.2598Y-2.0197
X5.2598Y-2.0472
X5.2598Y-2.0748
X5.2598Y-2.1024
X5.2598Y-2.1299
X5.2598Y-2.1575
X5.2598Y-2.185
X5.2598Y-2.2126
X5.2598Y-2.2402
X5.2598Y-2.2677
X5.2598Y-2.2953
X5.2598Y-2.3228
X5.2598Y-2.3504
X5.2598Y-2.378
X5.2598Y-2.4055
X5.2598Y-2.4331
X5.2598Y-2.4606
X5.2598Y-2.4882
X5.2598Y-2.5157
X5.2598Y-2.5433
X5.2598Y-2.5709
X5.2598Y-2.5984
X5.2598Y-2.626
X5.2598Y-2.6535
X5.2598Y-2.6811
X5.2598Y-2.7087
X5.2598Y-2.7362
X5.2598Y-2.7638
X5.2598Y-2.7913
X5.2598Y-2.8189
X5.2598Y-2.8465
X5.2598Y-2.874
X5.2598Y-2.9016
X5.2598Y-2.9291
X5.2598Y-2.9567
X5.2598Y-2.9843
X5.2598Y-3.0118
X5.2598Y-3.0394
X5.2598Y-3.0669
X5.2598Y-3.0945
X5.2598Y-3.122
X5.2598Y-3.1496
X5.2598Y-3.1772
X5.2598Y-3.2047
X5.2598Y-3.2323
X5.2598Y-3.2598
X5.2598Y-3.2874
X5.2874Y-2.0197
X5.2874Y-2.0472
X5.2874Y-2.0748
X5.2874Y-2.1024
X5.2874Y-2.1299
X5.2874Y-2.1575
X5.2874Y-2.185
X5.2874Y-2.2126
X5.2874Y-2.2402
X5.2874Y-2.2677
X5.2874Y-2.2953
X5.2874Y-2.3228
X5.2874Y-2.3504
X5.2874Y-2.378
X5.2874Y-2.4055
X5.2874Y-2.4331
X5.2874Y-2.4606
X5.2874Y-2.4882
X5.2874Y-2.5157
X5.2874Y-2.5433
X5.2874Y-2.5709
X5.2874Y-2.5984
X5.2874Y-2.626
X5.2874Y-2.6535
X5.2874Y-2.6811
X5.2874Y-2.7087
X5.2874Y-2.7362
X5.2874Y-2.7638
X5.2874Y-2.7913
X5.2874Y-2.8189
X5.2874Y-2.8465
X5.2874Y-2.874
X5.2874Y-2.9016
X5.2874Y-2.9291
X5.2874Y-2.9567
X5.2874Y-2.9843
X5.2874Y-3.0118
X5.2874Y-3.0394
X5.2874Y-3.0669
X5.2874Y-3.0945
X5.2874Y-3.122
X5.2874Y-3.1496
X5.2874Y-3.1772
X5.2874Y-3.2047
X5.2874Y-3.2323
X5.2874Y-3.2598
X5.2874Y-3.2874
T0
M30
