%TF.GenerationSoftware,KiCad,Pcbnew,5.1.6-c6e7f7d~87~ubuntu20.04.1*%
%TF.CreationDate,2021-01-17T18:02:22+02:00*%
%TF.ProjectId,LED_Mount,4c45445f-4d6f-4756-9e74-2e6b69636164,rev?*%
%TF.SameCoordinates,Original*%
%TF.FileFunction,Legend,Top*%
%TF.FilePolarity,Positive*%
%FSLAX46Y46*%
G04 Gerber Fmt 4.6, Leading zero omitted, Abs format (unit mm)*
G04 Created by KiCad (PCBNEW 5.1.6-c6e7f7d~87~ubuntu20.04.1) date 2021-01-17 18:02:22*
%MOMM*%
%LPD*%
G01*
G04 APERTURE LIST*
%ADD10C,0.100000*%
%ADD11C,0.150000*%
G04 APERTURE END LIST*
D10*
X125835714Y-84526190D02*
X125597619Y-84526190D01*
X125597619Y-84026190D01*
X126002380Y-84264285D02*
X126169047Y-84264285D01*
X126240476Y-84526190D02*
X126002380Y-84526190D01*
X126002380Y-84026190D01*
X126240476Y-84026190D01*
X126454761Y-84526190D02*
X126454761Y-84026190D01*
X126573809Y-84026190D01*
X126645238Y-84050000D01*
X126692857Y-84097619D01*
X126716666Y-84145238D01*
X126740476Y-84240476D01*
X126740476Y-84311904D01*
X126716666Y-84407142D01*
X126692857Y-84454761D01*
X126645238Y-84502380D01*
X126573809Y-84526190D01*
X126454761Y-84526190D01*
X126835714Y-84573809D02*
X127216666Y-84573809D01*
X127335714Y-84526190D02*
X127335714Y-84026190D01*
X127502380Y-84383333D01*
X127669047Y-84026190D01*
X127669047Y-84526190D01*
X128002380Y-84026190D02*
X128097619Y-84026190D01*
X128145238Y-84050000D01*
X128192857Y-84097619D01*
X128216666Y-84192857D01*
X128216666Y-84359523D01*
X128192857Y-84454761D01*
X128145238Y-84502380D01*
X128097619Y-84526190D01*
X128002380Y-84526190D01*
X127954761Y-84502380D01*
X127907142Y-84454761D01*
X127883333Y-84359523D01*
X127883333Y-84192857D01*
X127907142Y-84097619D01*
X127954761Y-84050000D01*
X128002380Y-84026190D01*
X128430952Y-84026190D02*
X128430952Y-84430952D01*
X128454761Y-84478571D01*
X128478571Y-84502380D01*
X128526190Y-84526190D01*
X128621428Y-84526190D01*
X128669047Y-84502380D01*
X128692857Y-84478571D01*
X128716666Y-84430952D01*
X128716666Y-84026190D01*
X128954761Y-84526190D02*
X128954761Y-84026190D01*
X129240476Y-84526190D01*
X129240476Y-84026190D01*
X129407142Y-84026190D02*
X129692857Y-84026190D01*
X129550000Y-84526190D02*
X129550000Y-84026190D01*
X129740476Y-84573809D02*
X130121428Y-84573809D01*
X130550000Y-84026190D02*
X130716666Y-84526190D01*
X130883333Y-84026190D01*
X131311904Y-84526190D02*
X131026190Y-84526190D01*
X131169047Y-84526190D02*
X131169047Y-84026190D01*
X131121428Y-84097619D01*
X131073809Y-84145238D01*
X131026190Y-84169047D01*
X131526190Y-84478571D02*
X131550000Y-84502380D01*
X131526190Y-84526190D01*
X131502380Y-84502380D01*
X131526190Y-84478571D01*
X131526190Y-84526190D01*
X131859523Y-84026190D02*
X131907142Y-84026190D01*
X131954761Y-84050000D01*
X131978571Y-84073809D01*
X132002380Y-84121428D01*
X132026190Y-84216666D01*
X132026190Y-84335714D01*
X132002380Y-84430952D01*
X131978571Y-84478571D01*
X131954761Y-84502380D01*
X131907142Y-84526190D01*
X131859523Y-84526190D01*
X131811904Y-84502380D01*
X131788095Y-84478571D01*
X131764285Y-84430952D01*
X131740476Y-84335714D01*
X131740476Y-84216666D01*
X131764285Y-84121428D01*
X131788095Y-84073809D01*
X131811904Y-84050000D01*
X131859523Y-84026190D01*
X100538095Y-50726190D02*
X100538095Y-50226190D01*
X100538095Y-50464285D02*
X100823809Y-50464285D01*
X100823809Y-50726190D02*
X100823809Y-50226190D01*
X101157142Y-50488095D02*
X101157142Y-50726190D01*
X100990476Y-50226190D02*
X101157142Y-50488095D01*
X101323809Y-50226190D01*
X101490476Y-50726190D02*
X101490476Y-50226190D01*
X101680952Y-50226190D01*
X101728571Y-50250000D01*
X101752380Y-50273809D01*
X101776190Y-50321428D01*
X101776190Y-50392857D01*
X101752380Y-50440476D01*
X101728571Y-50464285D01*
X101680952Y-50488095D01*
X101490476Y-50488095D01*
X101990476Y-50464285D02*
X102157142Y-50464285D01*
X102228571Y-50726190D02*
X101990476Y-50726190D01*
X101990476Y-50226190D01*
X102228571Y-50226190D01*
X102728571Y-50726190D02*
X102561904Y-50488095D01*
X102442857Y-50726190D02*
X102442857Y-50226190D01*
X102633333Y-50226190D01*
X102680952Y-50250000D01*
X102704761Y-50273809D01*
X102728571Y-50321428D01*
X102728571Y-50392857D01*
X102704761Y-50440476D01*
X102680952Y-50464285D01*
X102633333Y-50488095D01*
X102442857Y-50488095D01*
X102942857Y-50726190D02*
X102942857Y-50226190D01*
X103228571Y-50726190D01*
X103228571Y-50226190D01*
X103466666Y-50464285D02*
X103633333Y-50464285D01*
X103704761Y-50726190D02*
X103466666Y-50726190D01*
X103466666Y-50226190D01*
X103704761Y-50226190D01*
X103847619Y-50226190D02*
X104133333Y-50226190D01*
X103990476Y-50726190D02*
X103990476Y-50226190D01*
%TO.C,D1*%
D11*
X132061904Y-52752380D02*
X132061904Y-51752380D01*
X132300000Y-51752380D01*
X132442857Y-51800000D01*
X132538095Y-51895238D01*
X132585714Y-51990476D01*
X132633333Y-52180952D01*
X132633333Y-52323809D01*
X132585714Y-52514285D01*
X132538095Y-52609523D01*
X132442857Y-52704761D01*
X132300000Y-52752380D01*
X132061904Y-52752380D01*
X133585714Y-52752380D02*
X133014285Y-52752380D01*
X133300000Y-52752380D02*
X133300000Y-51752380D01*
X133204761Y-51895238D01*
X133109523Y-51990476D01*
X133014285Y-52038095D01*
%TD*%
M02*
